<mxfile host="app.diagrams.net" modified="2023-04-08T14:02:48.526Z" agent="Mozilla/5.0 (Windows NT 10.0; Win64; x64) AppleWebKit/537.36 (KHTML, like Gecko) Chrome/112.0.0.0 Safari/537.36" etag="_41OtDj7xQDEIPrc7IxT" version="21.1.5" type="device">
  <diagram name="Page-1" id="58cdce13-f638-feb5-8d6f-7d28b1aa9fa0">
    <mxGraphModel dx="378" dy="205" grid="1" gridSize="10" guides="1" tooltips="1" connect="1" arrows="1" fold="1" page="1" pageScale="1" pageWidth="1100" pageHeight="850" background="none" math="0" shadow="0">
      <root>
        <mxCell id="0" />
        <mxCell id="1" parent="0" />
        <mxCell id="382b91b5511bd0f7-1" value="" style="ellipse;html=1;shape=startState;fillColor=#000000;strokeColor=#000000;rounded=1;shadow=0;comic=0;labelBackgroundColor=none;fontFamily=Verdana;fontSize=11;fontColor=#000000;align=center;direction=south;" parent="1" vertex="1">
          <mxGeometry x="20" y="425" width="30" height="30" as="geometry" />
        </mxCell>
        <mxCell id="OWajW4cfqbQFmXT0bylH-7" style="edgeStyle=orthogonalEdgeStyle;rounded=0;orthogonalLoop=1;jettySize=auto;html=1;exitX=0.25;exitY=1;exitDx=0;exitDy=0;entryX=1;entryY=0.5;entryDx=0;entryDy=0;fontSize=11;endArrow=classicThin;endFill=1;startSize=8;endSize=8;" parent="1" source="382b91b5511bd0f7-6" target="OWajW4cfqbQFmXT0bylH-5" edge="1">
          <mxGeometry relative="1" as="geometry">
            <Array as="points">
              <mxPoint x="260" y="525" />
            </Array>
          </mxGeometry>
        </mxCell>
        <mxCell id="OWajW4cfqbQFmXT0bylH-17" value="Click close window" style="edgeLabel;html=1;align=center;verticalAlign=middle;resizable=0;points=[];fontSize=11;" parent="OWajW4cfqbQFmXT0bylH-7" vertex="1" connectable="0">
          <mxGeometry x="0.3558" y="-1" relative="1" as="geometry">
            <mxPoint as="offset" />
          </mxGeometry>
        </mxCell>
        <mxCell id="2a3bc250acf0617d-7" value="Community" style="swimlane;whiteSpace=wrap;html=1;rounded=1;shadow=0;comic=0;labelBackgroundColor=none;strokeWidth=1;fontFamily=Verdana;fontSize=11;align=center;startSize=15;" parent="1" vertex="1">
          <mxGeometry x="636" y="630" width="544" height="180" as="geometry" />
        </mxCell>
        <mxCell id="3cde6dad864a17aa-2" value="Individual Post Interface" style="rounded=1;whiteSpace=wrap;html=1;arcSize=24;fillColor=#ffffc0;strokeColor=#000000;shadow=0;comic=0;labelBackgroundColor=none;fontFamily=Verdana;fontSize=11;fontColor=#000000;align=center;" parent="2a3bc250acf0617d-7" vertex="1">
          <mxGeometry x="286" y="65" width="120" height="60" as="geometry" />
        </mxCell>
        <mxCell id="OWajW4cfqbQFmXT0bylH-1" style="edgeStyle=none;curved=1;rounded=0;orthogonalLoop=1;jettySize=auto;html=1;entryX=-0.015;entryY=0.504;entryDx=0;entryDy=0;entryPerimeter=0;fontSize=11;startSize=8;endSize=8;endArrow=classicThin;endFill=1;" parent="2a3bc250acf0617d-7" source="382b91b5511bd0f7-10" target="3cde6dad864a17aa-2" edge="1">
          <mxGeometry relative="1" as="geometry" />
        </mxCell>
        <mxCell id="OWajW4cfqbQFmXT0bylH-12" value="Click on &lt;br&gt;individual post" style="edgeLabel;html=1;align=center;verticalAlign=middle;resizable=0;points=[];fontSize=11;" parent="OWajW4cfqbQFmXT0bylH-1" vertex="1" connectable="0">
          <mxGeometry x="-0.4065" relative="1" as="geometry">
            <mxPoint x="19" y="-6" as="offset" />
          </mxGeometry>
        </mxCell>
        <mxCell id="382b91b5511bd0f7-10" value="Community Page" style="rounded=1;whiteSpace=wrap;html=1;arcSize=24;fillColor=#ffffc0;strokeColor=#000000;shadow=0;comic=0;labelBackgroundColor=none;fontFamily=Verdana;fontSize=11;fontColor=#000000;align=center;fontStyle=0" parent="2a3bc250acf0617d-7" vertex="1">
          <mxGeometry x="44" y="65" width="120" height="60" as="geometry" />
        </mxCell>
        <mxCell id="CGnisM2qNje5U3hMueVG-17" style="edgeStyle=orthogonalEdgeStyle;rounded=0;orthogonalLoop=1;jettySize=auto;html=1;exitX=0.25;exitY=0;exitDx=0;exitDy=0;entryX=0.75;entryY=0;entryDx=0;entryDy=0;" parent="2a3bc250acf0617d-7" source="382b91b5511bd0f7-10" target="382b91b5511bd0f7-10" edge="1">
          <mxGeometry relative="1" as="geometry">
            <Array as="points">
              <mxPoint x="74" y="45" />
              <mxPoint x="134" y="45" />
            </Array>
          </mxGeometry>
        </mxCell>
        <mxCell id="CGnisM2qNje5U3hMueVG-18" value="Search&lt;br&gt;Post" style="edgeLabel;html=1;align=center;verticalAlign=middle;resizable=0;points=[];" parent="CGnisM2qNje5U3hMueVG-17" vertex="1" connectable="0">
          <mxGeometry x="-0.2611" y="-1" relative="1" as="geometry">
            <mxPoint x="12" as="offset" />
          </mxGeometry>
        </mxCell>
        <mxCell id="2a3bc250acf0617d-9" style="edgeStyle=orthogonalEdgeStyle;html=1;labelBackgroundColor=none;endArrow=classic;endSize=8;strokeColor=#000000;fontFamily=Verdana;fontSize=11;align=left;rounded=0;endFill=1;" parent="1" target="382b91b5511bd0f7-6" edge="1">
          <mxGeometry relative="1" as="geometry">
            <mxPoint x="40" y="440" as="sourcePoint" />
            <Array as="points">
              <mxPoint x="40" y="444" />
              <mxPoint x="40" y="440" />
            </Array>
          </mxGeometry>
        </mxCell>
        <mxCell id="OWajW4cfqbQFmXT0bylH-11" value="Start/Launch Page" style="edgeLabel;html=1;align=center;verticalAlign=middle;resizable=0;points=[];fontSize=11;" parent="2a3bc250acf0617d-9" vertex="1" connectable="0">
          <mxGeometry x="-0.3025" y="-1" relative="1" as="geometry">
            <mxPoint x="24" y="-1" as="offset" />
          </mxGeometry>
        </mxCell>
        <mxCell id="2a3bc250acf0617d-13" style="edgeStyle=orthogonalEdgeStyle;html=1;exitX=0.75;exitY=1;labelBackgroundColor=none;endArrow=classicThin;endSize=8;strokeColor=#000000;fontFamily=Verdana;fontSize=11;align=left;endFill=1;rounded=0;exitDx=0;exitDy=0;entryX=0;entryY=0.5;entryDx=0;entryDy=0;" parent="1" source="382b91b5511bd0f7-6" target="382b91b5511bd0f7-10" edge="1">
          <mxGeometry relative="1" as="geometry">
            <mxPoint x="430" y="665" as="targetPoint" />
            <Array as="points">
              <mxPoint x="320" y="470" />
              <mxPoint x="320" y="590" />
              <mxPoint x="600" y="590" />
              <mxPoint x="600" y="725" />
            </Array>
          </mxGeometry>
        </mxCell>
        <mxCell id="7J5QnzSgjSci-G4uNdSz-4" value="Click Community Icon" style="edgeLabel;html=1;align=center;verticalAlign=middle;resizable=0;points=[];fontSize=11;" parent="2a3bc250acf0617d-13" vertex="1" connectable="0">
          <mxGeometry x="-0.2102" relative="1" as="geometry">
            <mxPoint x="171" y="20" as="offset" />
          </mxGeometry>
        </mxCell>
        <mxCell id="7J5QnzSgjSci-G4uNdSz-32" value="Restaurant" style="swimlane;whiteSpace=wrap;html=1;rounded=1;fontSize=11;startSize=23;" parent="1" vertex="1">
          <mxGeometry x="636" y="94" width="544" height="486" as="geometry" />
        </mxCell>
        <mxCell id="SVRDVq-U8UQw9ykVcq_Q-13" style="edgeStyle=orthogonalEdgeStyle;rounded=0;orthogonalLoop=1;jettySize=auto;html=1;exitX=0.75;exitY=1;exitDx=0;exitDy=0;entryX=0;entryY=0.5;entryDx=0;entryDy=0;" parent="7J5QnzSgjSci-G4uNdSz-32" source="7J5QnzSgjSci-G4uNdSz-7" target="SVRDVq-U8UQw9ykVcq_Q-12" edge="1">
          <mxGeometry relative="1" as="geometry" />
        </mxCell>
        <mxCell id="SVRDVq-U8UQw9ykVcq_Q-14" value="Click Share &lt;br&gt;(Logged In)" style="edgeLabel;html=1;align=center;verticalAlign=middle;resizable=0;points=[];" parent="SVRDVq-U8UQw9ykVcq_Q-13" vertex="1" connectable="0">
          <mxGeometry x="-0.5593" relative="1" as="geometry">
            <mxPoint x="10" y="11" as="offset" />
          </mxGeometry>
        </mxCell>
        <mxCell id="SVRDVq-U8UQw9ykVcq_Q-23" style="edgeStyle=orthogonalEdgeStyle;rounded=0;orthogonalLoop=1;jettySize=auto;html=1;exitX=0;exitY=0.5;exitDx=0;exitDy=0;entryX=0.5;entryY=0;entryDx=0;entryDy=0;" parent="7J5QnzSgjSci-G4uNdSz-32" source="7J5QnzSgjSci-G4uNdSz-7" target="SVRDVq-U8UQw9ykVcq_Q-22" edge="1">
          <mxGeometry relative="1" as="geometry" />
        </mxCell>
        <mxCell id="SVRDVq-U8UQw9ykVcq_Q-24" value="Click Share &lt;br&gt;(Not Logged In)" style="edgeLabel;html=1;align=center;verticalAlign=middle;resizable=0;points=[];" parent="SVRDVq-U8UQw9ykVcq_Q-23" vertex="1" connectable="0">
          <mxGeometry x="0.4252" y="1" relative="1" as="geometry">
            <mxPoint as="offset" />
          </mxGeometry>
        </mxCell>
        <mxCell id="7J5QnzSgjSci-G4uNdSz-7" value="Restaurant Details Page" style="rounded=1;whiteSpace=wrap;html=1;arcSize=24;fillColor=#ffffc0;strokeColor=#000000;shadow=0;comic=0;labelBackgroundColor=none;fontFamily=Verdana;fontSize=11;fontColor=#000000;align=center;" parent="7J5QnzSgjSci-G4uNdSz-32" vertex="1">
          <mxGeometry x="264" y="312" width="120" height="60" as="geometry" />
        </mxCell>
        <mxCell id="cELMfS2GaExNaG8Us1sW-119" style="edgeStyle=orthogonalEdgeStyle;rounded=0;orthogonalLoop=1;jettySize=auto;html=1;exitX=0.022;exitY=0.142;exitDx=0;exitDy=0;fontSize=11;exitPerimeter=0;entryX=0;entryY=0.5;entryDx=0;entryDy=0;" parent="7J5QnzSgjSci-G4uNdSz-32" source="382b91b5511bd0f7-9" target="cELMfS2GaExNaG8Us1sW-121" edge="1">
          <mxGeometry relative="1" as="geometry">
            <mxPoint x="234" y="96" as="targetPoint" />
            <Array as="points">
              <mxPoint x="214" y="165" />
              <mxPoint x="214" y="66" />
            </Array>
          </mxGeometry>
        </mxCell>
        <mxCell id="cELMfS2GaExNaG8Us1sW-120" value="Sort restaurants" style="edgeLabel;html=1;align=center;verticalAlign=middle;resizable=0;points=[];fontSize=11;" parent="cELMfS2GaExNaG8Us1sW-119" vertex="1" connectable="0">
          <mxGeometry x="0.5254" y="4" relative="1" as="geometry">
            <mxPoint x="-2" y="54" as="offset" />
          </mxGeometry>
        </mxCell>
        <mxCell id="CGnisM2qNje5U3hMueVG-11" style="edgeStyle=orthogonalEdgeStyle;rounded=0;orthogonalLoop=1;jettySize=auto;html=1;exitX=0.75;exitY=1;exitDx=0;exitDy=0;entryX=1.007;entryY=0.671;entryDx=0;entryDy=0;entryPerimeter=0;" parent="7J5QnzSgjSci-G4uNdSz-32" source="382b91b5511bd0f7-9" target="382b91b5511bd0f7-9" edge="1">
          <mxGeometry relative="1" as="geometry">
            <mxPoint x="394" y="196" as="targetPoint" />
            <Array as="points">
              <mxPoint x="354" y="236" />
              <mxPoint x="404" y="236" />
              <mxPoint x="404" y="196" />
            </Array>
          </mxGeometry>
        </mxCell>
        <mxCell id="CGnisM2qNje5U3hMueVG-12" value="Select Dietary &lt;br&gt;Restrictions" style="edgeLabel;html=1;align=center;verticalAlign=middle;resizable=0;points=[];" parent="CGnisM2qNje5U3hMueVG-11" vertex="1" connectable="0">
          <mxGeometry x="0.5133" relative="1" as="geometry">
            <mxPoint x="6" y="20" as="offset" />
          </mxGeometry>
        </mxCell>
        <mxCell id="382b91b5511bd0f7-9" value="Restaurants List" style="rounded=1;whiteSpace=wrap;html=1;arcSize=24;fillColor=#ffffc0;strokeColor=#000000;shadow=0;comic=0;labelBackgroundColor=none;fontFamily=Verdana;fontSize=11;fontColor=#000000;align=center;" parent="7J5QnzSgjSci-G4uNdSz-32" vertex="1">
          <mxGeometry x="264" y="156" width="120" height="60" as="geometry" />
        </mxCell>
        <mxCell id="7J5QnzSgjSci-G4uNdSz-11" style="edgeStyle=orthogonalEdgeStyle;rounded=0;orthogonalLoop=1;jettySize=auto;html=1;exitX=0.5;exitY=0;exitDx=0;exitDy=0;entryX=0.5;entryY=1;entryDx=0;entryDy=0;startArrow=classicThin;startFill=1;endArrow=none;endFill=0;fontSize=11;" parent="7J5QnzSgjSci-G4uNdSz-32" source="7J5QnzSgjSci-G4uNdSz-7" target="382b91b5511bd0f7-9" edge="1">
          <mxGeometry relative="1" as="geometry" />
        </mxCell>
        <mxCell id="OWajW4cfqbQFmXT0bylH-14" value="Click on specific restaurant" style="edgeLabel;html=1;align=center;verticalAlign=middle;resizable=0;points=[];fontSize=11;" parent="7J5QnzSgjSci-G4uNdSz-11" vertex="1" connectable="0">
          <mxGeometry x="0.2908" relative="1" as="geometry">
            <mxPoint y="12" as="offset" />
          </mxGeometry>
        </mxCell>
        <mxCell id="SVRDVq-U8UQw9ykVcq_Q-18" style="edgeStyle=orthogonalEdgeStyle;rounded=0;orthogonalLoop=1;jettySize=auto;html=1;exitX=0.818;exitY=0.016;exitDx=0;exitDy=0;entryX=0.821;entryY=0.996;entryDx=0;entryDy=0;entryPerimeter=0;exitPerimeter=0;" parent="7J5QnzSgjSci-G4uNdSz-32" source="7J5QnzSgjSci-G4uNdSz-22" target="SVRDVq-U8UQw9ykVcq_Q-17" edge="1">
          <mxGeometry relative="1" as="geometry" />
        </mxCell>
        <mxCell id="SVRDVq-U8UQw9ykVcq_Q-19" value="Click Restaurant &lt;br&gt;Pin" style="edgeLabel;html=1;align=center;verticalAlign=middle;resizable=0;points=[];" parent="SVRDVq-U8UQw9ykVcq_Q-18" vertex="1" connectable="0">
          <mxGeometry x="-0.1226" relative="1" as="geometry">
            <mxPoint x="2" as="offset" />
          </mxGeometry>
        </mxCell>
        <mxCell id="7J5QnzSgjSci-G4uNdSz-22" value="Map Interface" style="rounded=1;whiteSpace=wrap;html=1;arcSize=24;fillColor=#ffffc0;strokeColor=#000000;shadow=0;comic=0;labelBackgroundColor=none;fontFamily=Verdana;fontSize=11;fontColor=#000000;align=center;" parent="7J5QnzSgjSci-G4uNdSz-32" vertex="1">
          <mxGeometry x="14" y="312" width="120" height="60" as="geometry" />
        </mxCell>
        <mxCell id="cELMfS2GaExNaG8Us1sW-113" style="edgeStyle=orthogonalEdgeStyle;rounded=0;orthogonalLoop=1;jettySize=auto;html=1;fontSize=11;" parent="7J5QnzSgjSci-G4uNdSz-32" edge="1">
          <mxGeometry relative="1" as="geometry">
            <mxPoint x="284" y="156" as="sourcePoint" />
            <mxPoint x="364" y="156" as="targetPoint" />
            <Array as="points">
              <mxPoint x="284" y="156" />
              <mxPoint x="284" y="106" />
              <mxPoint x="364" y="106" />
              <mxPoint x="364" y="156" />
            </Array>
          </mxGeometry>
        </mxCell>
        <mxCell id="cELMfS2GaExNaG8Us1sW-114" value="Search&lt;br&gt;restaurants" style="edgeLabel;html=1;align=center;verticalAlign=middle;resizable=0;points=[];fontSize=11;" parent="cELMfS2GaExNaG8Us1sW-113" vertex="1" connectable="0">
          <mxGeometry x="-0.1345" y="-1" relative="1" as="geometry">
            <mxPoint x="12" y="5" as="offset" />
          </mxGeometry>
        </mxCell>
        <mxCell id="cELMfS2GaExNaG8Us1sW-122" style="edgeStyle=orthogonalEdgeStyle;rounded=0;orthogonalLoop=1;jettySize=auto;html=1;exitX=1;exitY=0.5;exitDx=0;exitDy=0;entryX=1;entryY=0.5;entryDx=0;entryDy=0;fontSize=11;" parent="7J5QnzSgjSci-G4uNdSz-32" source="cELMfS2GaExNaG8Us1sW-121" target="382b91b5511bd0f7-9" edge="1">
          <mxGeometry relative="1" as="geometry" />
        </mxCell>
        <mxCell id="cELMfS2GaExNaG8Us1sW-123" value="Selected &lt;br&gt;sort order" style="edgeLabel;html=1;align=center;verticalAlign=middle;resizable=0;points=[];fontSize=11;" parent="cELMfS2GaExNaG8Us1sW-122" vertex="1" connectable="0">
          <mxGeometry x="-0.3708" y="1" relative="1" as="geometry">
            <mxPoint x="1" y="30" as="offset" />
          </mxGeometry>
        </mxCell>
        <mxCell id="cELMfS2GaExNaG8Us1sW-121" value="Sort Order Drop-Down" style="rounded=1;whiteSpace=wrap;html=1;arcSize=24;fillColor=#ffffc0;strokeColor=#000000;shadow=0;comic=0;labelBackgroundColor=none;fontFamily=Verdana;fontSize=11;fontColor=#000000;align=center;" parent="7J5QnzSgjSci-G4uNdSz-32" vertex="1">
          <mxGeometry x="264" y="36" width="120" height="60" as="geometry" />
        </mxCell>
        <mxCell id="CGnisM2qNje5U3hMueVG-13" style="edgeStyle=orthogonalEdgeStyle;rounded=0;orthogonalLoop=1;jettySize=auto;html=1;exitX=0.75;exitY=1;exitDx=0;exitDy=0;entryX=0.25;entryY=1;entryDx=0;entryDy=0;" parent="7J5QnzSgjSci-G4uNdSz-32" source="7J5QnzSgjSci-G4uNdSz-22" target="7J5QnzSgjSci-G4uNdSz-22" edge="1">
          <mxGeometry relative="1" as="geometry" />
        </mxCell>
        <mxCell id="CGnisM2qNje5U3hMueVG-14" value="Search &lt;br&gt;location" style="edgeLabel;html=1;align=center;verticalAlign=middle;resizable=0;points=[];" parent="CGnisM2qNje5U3hMueVG-13" vertex="1" connectable="0">
          <mxGeometry x="0.3988" y="1" relative="1" as="geometry">
            <mxPoint x="20" as="offset" />
          </mxGeometry>
        </mxCell>
        <mxCell id="SVRDVq-U8UQw9ykVcq_Q-15" style="edgeStyle=orthogonalEdgeStyle;rounded=0;orthogonalLoop=1;jettySize=auto;html=1;exitX=0.5;exitY=0;exitDx=0;exitDy=0;entryX=1;entryY=0.5;entryDx=0;entryDy=0;" parent="7J5QnzSgjSci-G4uNdSz-32" source="SVRDVq-U8UQw9ykVcq_Q-12" target="7J5QnzSgjSci-G4uNdSz-7" edge="1">
          <mxGeometry relative="1" as="geometry">
            <Array as="points">
              <mxPoint x="454" y="342" />
            </Array>
          </mxGeometry>
        </mxCell>
        <mxCell id="SVRDVq-U8UQw9ykVcq_Q-16" value="Click Submit" style="edgeLabel;html=1;align=center;verticalAlign=middle;resizable=0;points=[];" parent="SVRDVq-U8UQw9ykVcq_Q-15" vertex="1" connectable="0">
          <mxGeometry x="-0.2895" y="1" relative="1" as="geometry">
            <mxPoint y="8" as="offset" />
          </mxGeometry>
        </mxCell>
        <mxCell id="SVRDVq-U8UQw9ykVcq_Q-12" value="Post Creation Page" style="rounded=1;whiteSpace=wrap;html=1;arcSize=24;fillColor=#ffffc0;strokeColor=#000000;shadow=0;comic=0;labelBackgroundColor=none;fontFamily=Verdana;fontSize=11;fontColor=#000000;align=center;fontStyle=0" parent="7J5QnzSgjSci-G4uNdSz-32" vertex="1">
          <mxGeometry x="394" y="406" width="120" height="60" as="geometry" />
        </mxCell>
        <mxCell id="SVRDVq-U8UQw9ykVcq_Q-20" style="edgeStyle=orthogonalEdgeStyle;rounded=0;orthogonalLoop=1;jettySize=auto;html=1;exitX=0.25;exitY=1;exitDx=0;exitDy=0;entryX=0.25;entryY=0;entryDx=0;entryDy=0;" parent="7J5QnzSgjSci-G4uNdSz-32" source="SVRDVq-U8UQw9ykVcq_Q-17" target="7J5QnzSgjSci-G4uNdSz-22" edge="1">
          <mxGeometry relative="1" as="geometry" />
        </mxCell>
        <mxCell id="SVRDVq-U8UQw9ykVcq_Q-21" value="Click Close" style="edgeLabel;html=1;align=center;verticalAlign=middle;resizable=0;points=[];" parent="SVRDVq-U8UQw9ykVcq_Q-20" vertex="1" connectable="0">
          <mxGeometry x="-0.1406" relative="1" as="geometry">
            <mxPoint x="-10" y="-4" as="offset" />
          </mxGeometry>
        </mxCell>
        <mxCell id="SVRDVq-U8UQw9ykVcq_Q-17" value="Restaurant Map Interface" style="rounded=1;whiteSpace=wrap;html=1;arcSize=24;fillColor=#ffffc0;strokeColor=#000000;shadow=0;comic=0;labelBackgroundColor=none;fontFamily=Verdana;fontSize=11;fontColor=#000000;align=center;" parent="7J5QnzSgjSci-G4uNdSz-32" vertex="1">
          <mxGeometry x="14" y="186" width="120" height="60" as="geometry" />
        </mxCell>
        <mxCell id="SVRDVq-U8UQw9ykVcq_Q-25" style="edgeStyle=orthogonalEdgeStyle;rounded=0;orthogonalLoop=1;jettySize=auto;html=1;exitX=1;exitY=0.5;exitDx=0;exitDy=0;entryX=0.25;entryY=1;entryDx=0;entryDy=0;" parent="7J5QnzSgjSci-G4uNdSz-32" source="SVRDVq-U8UQw9ykVcq_Q-22" target="7J5QnzSgjSci-G4uNdSz-7" edge="1">
          <mxGeometry relative="1" as="geometry">
            <mxPoint x="284" y="376" as="targetPoint" />
            <Array as="points">
              <mxPoint x="294" y="426" />
            </Array>
          </mxGeometry>
        </mxCell>
        <mxCell id="SVRDVq-U8UQw9ykVcq_Q-26" value="Click Ok" style="edgeLabel;html=1;align=center;verticalAlign=middle;resizable=0;points=[];" parent="SVRDVq-U8UQw9ykVcq_Q-25" vertex="1" connectable="0">
          <mxGeometry x="0.0169" y="-1" relative="1" as="geometry">
            <mxPoint x="-1" y="-19" as="offset" />
          </mxGeometry>
        </mxCell>
        <mxCell id="SVRDVq-U8UQw9ykVcq_Q-22" value="User Not Signed In Pop Up Message" style="rounded=1;whiteSpace=wrap;html=1;arcSize=24;fillColor=#ffffc0;strokeColor=#000000;shadow=0;comic=0;labelBackgroundColor=none;fontFamily=Verdana;fontSize=11;fontColor=#000000;align=center;fontStyle=0" parent="7J5QnzSgjSci-G4uNdSz-32" vertex="1">
          <mxGeometry x="134" y="396" width="120" height="60" as="geometry" />
        </mxCell>
        <mxCell id="7J5QnzSgjSci-G4uNdSz-34" value="Home &amp;amp; Account" style="swimlane;whiteSpace=wrap;html=1;strokeColor=#000000;rounded=1;fontSize=11;" parent="1" vertex="1">
          <mxGeometry x="70" y="90" width="540" height="800" as="geometry" />
        </mxCell>
        <mxCell id="cELMfS2GaExNaG8Us1sW-21" style="edgeStyle=orthogonalEdgeStyle;rounded=0;orthogonalLoop=1;jettySize=auto;html=1;exitX=0.5;exitY=1;exitDx=0;exitDy=0;entryX=1;entryY=0.75;entryDx=0;entryDy=0;fontSize=11;" parent="7J5QnzSgjSci-G4uNdSz-34" source="382b91b5511bd0f7-7" target="382b91b5511bd0f7-6" edge="1">
          <mxGeometry relative="1" as="geometry">
            <Array as="points">
              <mxPoint x="431" y="270" />
              <mxPoint x="377" y="270" />
              <mxPoint x="377" y="365" />
            </Array>
          </mxGeometry>
        </mxCell>
        <mxCell id="cELMfS2GaExNaG8Us1sW-23" value="Created new &lt;br&gt;account &lt;br&gt;successfully" style="edgeLabel;html=1;align=center;verticalAlign=middle;resizable=0;points=[];fontSize=11;" parent="cELMfS2GaExNaG8Us1sW-21" vertex="1" connectable="0">
          <mxGeometry x="0.1642" relative="1" as="geometry">
            <mxPoint x="3" y="-41" as="offset" />
          </mxGeometry>
        </mxCell>
        <mxCell id="CGnisM2qNje5U3hMueVG-1" style="edgeStyle=orthogonalEdgeStyle;rounded=0;orthogonalLoop=1;jettySize=auto;html=1;exitX=0;exitY=0.75;exitDx=0;exitDy=0;entryX=1;entryY=0.75;entryDx=0;entryDy=0;" parent="7J5QnzSgjSci-G4uNdSz-34" source="382b91b5511bd0f7-7" target="382b91b5511bd0f7-5" edge="1">
          <mxGeometry relative="1" as="geometry" />
        </mxCell>
        <mxCell id="CGnisM2qNje5U3hMueVG-2" value="Log in" style="edgeLabel;html=1;align=center;verticalAlign=middle;resizable=0;points=[];" parent="CGnisM2qNje5U3hMueVG-1" vertex="1" connectable="0">
          <mxGeometry x="0.2799" y="1" relative="1" as="geometry">
            <mxPoint x="14" as="offset" />
          </mxGeometry>
        </mxCell>
        <mxCell id="OXkBhHKcekTNyX_xAfDb-1" style="edgeStyle=orthogonalEdgeStyle;rounded=0;orthogonalLoop=1;jettySize=auto;html=1;exitX=0.845;exitY=0.009;exitDx=0;exitDy=0;exitPerimeter=0;entryX=1;entryY=0.5;entryDx=0;entryDy=0;" edge="1" parent="7J5QnzSgjSci-G4uNdSz-34" source="382b91b5511bd0f7-7" target="OXkBhHKcekTNyX_xAfDb-3">
          <mxGeometry relative="1" as="geometry">
            <mxPoint x="390" y="170" as="targetPoint" />
          </mxGeometry>
        </mxCell>
        <mxCell id="OXkBhHKcekTNyX_xAfDb-2" value="Enter user ID &lt;br&gt;that exists" style="edgeLabel;html=1;align=center;verticalAlign=middle;resizable=0;points=[];" vertex="1" connectable="0" parent="OXkBhHKcekTNyX_xAfDb-1">
          <mxGeometry x="-0.2502" y="2" relative="1" as="geometry">
            <mxPoint x="-14" y="3" as="offset" />
          </mxGeometry>
        </mxCell>
        <mxCell id="382b91b5511bd0f7-7" value="Account Creation Page" style="rounded=1;whiteSpace=wrap;html=1;arcSize=24;fillColor=#ffffc0;strokeColor=#000000;shadow=0;comic=0;labelBackgroundColor=none;fontFamily=Verdana;fontSize=11;fontColor=#000000;align=center;" parent="7J5QnzSgjSci-G4uNdSz-34" vertex="1">
          <mxGeometry x="415" y="190" width="120" height="60" as="geometry" />
        </mxCell>
        <mxCell id="cELMfS2GaExNaG8Us1sW-15" style="edgeStyle=orthogonalEdgeStyle;rounded=0;orthogonalLoop=1;jettySize=auto;html=1;exitX=1;exitY=0.5;exitDx=0;exitDy=0;entryX=0;entryY=0.5;entryDx=0;entryDy=0;fontSize=11;" parent="7J5QnzSgjSci-G4uNdSz-34" source="382b91b5511bd0f7-5" target="382b91b5511bd0f7-7" edge="1">
          <mxGeometry relative="1" as="geometry" />
        </mxCell>
        <mxCell id="cELMfS2GaExNaG8Us1sW-16" value="Sign Up" style="edgeLabel;html=1;align=center;verticalAlign=middle;resizable=0;points=[];fontSize=11;" parent="cELMfS2GaExNaG8Us1sW-15" vertex="1" connectable="0">
          <mxGeometry x="-0.267" relative="1" as="geometry">
            <mxPoint x="13" as="offset" />
          </mxGeometry>
        </mxCell>
        <mxCell id="382b91b5511bd0f7-5" value="Login Page" style="rounded=1;whiteSpace=wrap;html=1;arcSize=24;fillColor=#ffffc0;strokeColor=#000000;shadow=0;comic=0;labelBackgroundColor=none;fontFamily=Verdana;fontSize=11;fontColor=#000000;align=center;" parent="7J5QnzSgjSci-G4uNdSz-34" vertex="1">
          <mxGeometry x="170" y="190" width="120" height="60" as="geometry" />
        </mxCell>
        <mxCell id="cELMfS2GaExNaG8Us1sW-17" style="edgeStyle=orthogonalEdgeStyle;rounded=0;orthogonalLoop=1;jettySize=auto;html=1;exitX=0.447;exitY=-0.005;exitDx=0;exitDy=0;fontSize=11;entryX=0.25;entryY=1;entryDx=0;entryDy=0;exitPerimeter=0;" parent="7J5QnzSgjSci-G4uNdSz-34" source="382b91b5511bd0f7-6" target="382b91b5511bd0f7-5" edge="1">
          <mxGeometry relative="1" as="geometry">
            <mxPoint x="237" y="250" as="targetPoint" />
            <Array as="points" />
          </mxGeometry>
        </mxCell>
        <mxCell id="cELMfS2GaExNaG8Us1sW-18" value="Click Account Icon" style="edgeLabel;html=1;align=center;verticalAlign=middle;resizable=0;points=[];fontSize=11;" parent="cELMfS2GaExNaG8Us1sW-17" vertex="1" connectable="0">
          <mxGeometry x="0.3137" relative="1" as="geometry">
            <mxPoint y="16" as="offset" />
          </mxGeometry>
        </mxCell>
        <mxCell id="CGnisM2qNje5U3hMueVG-4" style="edgeStyle=orthogonalEdgeStyle;rounded=0;orthogonalLoop=1;jettySize=auto;html=1;exitX=0;exitY=0.25;exitDx=0;exitDy=0;entryX=0.5;entryY=1;entryDx=0;entryDy=0;" parent="7J5QnzSgjSci-G4uNdSz-34" edge="1">
          <mxGeometry relative="1" as="geometry">
            <mxPoint x="147" y="334" as="sourcePoint" />
            <mxPoint x="70" y="289" as="targetPoint" />
          </mxGeometry>
        </mxCell>
        <mxCell id="CGnisM2qNje5U3hMueVG-5" value="Click Help Icon" style="edgeLabel;html=1;align=center;verticalAlign=middle;resizable=0;points=[];" parent="CGnisM2qNje5U3hMueVG-4" vertex="1" connectable="0">
          <mxGeometry x="0.4022" y="2" relative="1" as="geometry">
            <mxPoint y="-8" as="offset" />
          </mxGeometry>
        </mxCell>
        <mxCell id="382b91b5511bd0f7-6" value="Home Page &lt;br&gt;(Map Page)" style="rounded=1;whiteSpace=wrap;html=1;arcSize=24;fillColor=#ffffc0;strokeColor=#000000;shadow=0;comic=0;labelBackgroundColor=none;fontFamily=Verdana;fontSize=11;fontColor=#000000;align=center;" parent="7J5QnzSgjSci-G4uNdSz-34" vertex="1">
          <mxGeometry x="147" y="320" width="120" height="60" as="geometry" />
        </mxCell>
        <mxCell id="cELMfS2GaExNaG8Us1sW-13" style="edgeStyle=orthogonalEdgeStyle;rounded=0;orthogonalLoop=1;jettySize=auto;html=1;fontSize=11;" parent="7J5QnzSgjSci-G4uNdSz-34" source="382b91b5511bd0f7-5" edge="1">
          <mxGeometry relative="1" as="geometry">
            <mxPoint x="178.0000000000001" y="100" as="sourcePoint" />
            <mxPoint x="250" y="190" as="targetPoint" />
            <Array as="points">
              <mxPoint x="180" y="140" />
              <mxPoint x="250" y="140" />
            </Array>
          </mxGeometry>
        </mxCell>
        <mxCell id="cELMfS2GaExNaG8Us1sW-14" value="Try to log in &lt;br&gt;with wrong &lt;br&gt;credentials" style="edgeLabel;html=1;align=center;verticalAlign=middle;resizable=0;points=[];fontSize=11;" parent="cELMfS2GaExNaG8Us1sW-13" vertex="1" connectable="0">
          <mxGeometry x="-0.2783" y="2" relative="1" as="geometry">
            <mxPoint x="22" y="12" as="offset" />
          </mxGeometry>
        </mxCell>
        <mxCell id="cELMfS2GaExNaG8Us1sW-20" value="Home Page &lt;br&gt;(Logged in)" style="rounded=1;whiteSpace=wrap;html=1;arcSize=24;fillColor=#ffffc0;strokeColor=#000000;shadow=0;comic=0;labelBackgroundColor=none;fontFamily=Verdana;fontSize=11;fontColor=#000000;align=center;" parent="7J5QnzSgjSci-G4uNdSz-34" vertex="1">
          <mxGeometry x="330" y="400" width="120" height="60" as="geometry" />
        </mxCell>
        <mxCell id="CGnisM2qNje5U3hMueVG-6" style="edgeStyle=orthogonalEdgeStyle;rounded=0;orthogonalLoop=1;jettySize=auto;html=1;exitX=0.75;exitY=1;exitDx=0;exitDy=0;" parent="7J5QnzSgjSci-G4uNdSz-34" source="CGnisM2qNje5U3hMueVG-3" edge="1">
          <mxGeometry relative="1" as="geometry">
            <mxPoint x="150" y="326" as="targetPoint" />
            <Array as="points">
              <mxPoint x="100" y="310" />
              <mxPoint x="150" y="310" />
            </Array>
          </mxGeometry>
        </mxCell>
        <mxCell id="CGnisM2qNje5U3hMueVG-7" value="Click Close" style="edgeLabel;html=1;align=center;verticalAlign=middle;resizable=0;points=[];" parent="CGnisM2qNje5U3hMueVG-6" vertex="1" connectable="0">
          <mxGeometry x="-0.3533" y="1" relative="1" as="geometry">
            <mxPoint y="-7" as="offset" />
          </mxGeometry>
        </mxCell>
        <mxCell id="CGnisM2qNje5U3hMueVG-3" value="Help Page" style="rounded=1;whiteSpace=wrap;html=1;arcSize=24;fillColor=#ffffc0;strokeColor=#000000;shadow=0;comic=0;labelBackgroundColor=none;fontFamily=Verdana;fontSize=11;fontColor=#000000;align=center;" parent="7J5QnzSgjSci-G4uNdSz-34" vertex="1">
          <mxGeometry x="10" y="230" width="120" height="60" as="geometry" />
        </mxCell>
        <mxCell id="cELMfS2GaExNaG8Us1sW-56" value="Settings Page" style="rounded=1;whiteSpace=wrap;html=1;arcSize=24;fillColor=#ffffc0;strokeColor=#000000;shadow=0;comic=0;labelBackgroundColor=none;fontFamily=Verdana;fontSize=11;fontColor=#000000;align=center;rotation=0;" parent="7J5QnzSgjSci-G4uNdSz-34" vertex="1">
          <mxGeometry x="340" y="30" width="120" height="60" as="geometry" />
        </mxCell>
        <mxCell id="CGnisM2qNje5U3hMueVG-15" style="edgeStyle=orthogonalEdgeStyle;rounded=0;orthogonalLoop=1;jettySize=auto;html=1;exitX=1;exitY=0.5;exitDx=0;exitDy=0;entryX=1;entryY=0.5;entryDx=0;entryDy=0;" parent="7J5QnzSgjSci-G4uNdSz-34" source="cELMfS2GaExNaG8Us1sW-20" target="cELMfS2GaExNaG8Us1sW-56" edge="1">
          <mxGeometry relative="1" as="geometry">
            <Array as="points">
              <mxPoint x="550" y="430" />
              <mxPoint x="550" y="60" />
            </Array>
          </mxGeometry>
        </mxCell>
        <mxCell id="SVRDVq-U8UQw9ykVcq_Q-9" value="Click &lt;br&gt;Settings &lt;br&gt;Icon" style="edgeLabel;html=1;align=center;verticalAlign=middle;resizable=0;points=[];" parent="CGnisM2qNje5U3hMueVG-15" vertex="1" connectable="0">
          <mxGeometry x="0.7393" y="-1" relative="1" as="geometry">
            <mxPoint x="-27" as="offset" />
          </mxGeometry>
        </mxCell>
        <mxCell id="SVRDVq-U8UQw9ykVcq_Q-64" style="edgeStyle=orthogonalEdgeStyle;rounded=0;orthogonalLoop=1;jettySize=auto;html=1;exitX=0.5;exitY=0;exitDx=0;exitDy=0;entryX=0;entryY=0.5;entryDx=0;entryDy=0;" parent="7J5QnzSgjSci-G4uNdSz-34" source="SVRDVq-U8UQw9ykVcq_Q-61" target="382b91b5511bd0f7-5" edge="1">
          <mxGeometry relative="1" as="geometry">
            <Array as="points">
              <mxPoint x="87" y="540" />
              <mxPoint x="140" y="540" />
              <mxPoint x="140" y="220" />
            </Array>
          </mxGeometry>
        </mxCell>
        <mxCell id="SVRDVq-U8UQw9ykVcq_Q-65" value="Click Ok" style="edgeLabel;html=1;align=center;verticalAlign=middle;resizable=0;points=[];" parent="SVRDVq-U8UQw9ykVcq_Q-64" vertex="1" connectable="0">
          <mxGeometry x="-0.4196" y="1" relative="1" as="geometry">
            <mxPoint as="offset" />
          </mxGeometry>
        </mxCell>
        <mxCell id="SVRDVq-U8UQw9ykVcq_Q-61" value="Account Deleted Pop Up Message" style="rounded=1;whiteSpace=wrap;html=1;arcSize=24;fillColor=#ffffc0;strokeColor=#000000;shadow=0;comic=0;labelBackgroundColor=none;fontFamily=Verdana;fontSize=11;fontColor=#000000;align=center;rotation=0;" parent="7J5QnzSgjSci-G4uNdSz-34" vertex="1">
          <mxGeometry x="27" y="570" width="120" height="60" as="geometry" />
        </mxCell>
        <mxCell id="OXkBhHKcekTNyX_xAfDb-4" style="edgeStyle=orthogonalEdgeStyle;rounded=0;orthogonalLoop=1;jettySize=auto;html=1;exitX=0.5;exitY=1;exitDx=0;exitDy=0;entryX=0;entryY=0.25;entryDx=0;entryDy=0;" edge="1" parent="7J5QnzSgjSci-G4uNdSz-34" source="OXkBhHKcekTNyX_xAfDb-3" target="382b91b5511bd0f7-7">
          <mxGeometry relative="1" as="geometry">
            <Array as="points">
              <mxPoint x="400" y="205" />
            </Array>
          </mxGeometry>
        </mxCell>
        <mxCell id="OXkBhHKcekTNyX_xAfDb-3" value="Error Message" style="rounded=1;whiteSpace=wrap;html=1;arcSize=24;fillColor=#ffffc0;strokeColor=#000000;shadow=0;comic=0;labelBackgroundColor=none;fontFamily=Verdana;fontSize=11;fontColor=#000000;align=center;" vertex="1" parent="7J5QnzSgjSci-G4uNdSz-34">
          <mxGeometry x="340" y="100" width="120" height="60" as="geometry" />
        </mxCell>
        <mxCell id="OWajW4cfqbQFmXT0bylH-6" value="" style="group;fontSize=11;" parent="1" vertex="1" connectable="0">
          <mxGeometry x="20" y="510" width="30" height="30" as="geometry" />
        </mxCell>
        <mxCell id="OWajW4cfqbQFmXT0bylH-5" value="" style="ellipse;whiteSpace=wrap;html=1;aspect=fixed;labelBackgroundColor=#000000;strokeColor=#000000;fontSize=11;" parent="OWajW4cfqbQFmXT0bylH-6" vertex="1">
          <mxGeometry width="30" height="30" as="geometry" />
        </mxCell>
        <mxCell id="OWajW4cfqbQFmXT0bylH-4" value="" style="ellipse;html=1;shape=startState;fillColor=#000000;strokeColor=#000000;rounded=1;shadow=0;comic=0;labelBackgroundColor=none;fontFamily=Verdana;fontSize=11;fontColor=#000000;align=center;direction=south;" parent="OWajW4cfqbQFmXT0bylH-6" vertex="1">
          <mxGeometry width="30" height="30" as="geometry" />
        </mxCell>
        <mxCell id="cELMfS2GaExNaG8Us1sW-115" style="edgeStyle=orthogonalEdgeStyle;rounded=0;orthogonalLoop=1;jettySize=auto;html=1;exitX=1;exitY=0.25;exitDx=0;exitDy=0;entryX=0;entryY=0.25;entryDx=0;entryDy=0;fontSize=11;" parent="1" source="382b91b5511bd0f7-6" target="382b91b5511bd0f7-9" edge="1">
          <mxGeometry relative="1" as="geometry">
            <Array as="points">
              <mxPoint x="640" y="425" />
              <mxPoint x="640" y="265" />
            </Array>
          </mxGeometry>
        </mxCell>
        <mxCell id="cELMfS2GaExNaG8Us1sW-116" value="Click List Icon" style="edgeLabel;html=1;align=center;verticalAlign=middle;resizable=0;points=[];fontSize=11;" parent="cELMfS2GaExNaG8Us1sW-115" vertex="1" connectable="0">
          <mxGeometry x="0.4657" y="2" relative="1" as="geometry">
            <mxPoint x="50" y="2" as="offset" />
          </mxGeometry>
        </mxCell>
        <mxCell id="9ruTHZRYSfqobqTMPus9-1" style="edgeStyle=orthogonalEdgeStyle;rounded=0;orthogonalLoop=1;jettySize=auto;html=1;exitX=1;exitY=0.5;exitDx=0;exitDy=0;" parent="1" source="382b91b5511bd0f7-6" target="7J5QnzSgjSci-G4uNdSz-22" edge="1">
          <mxGeometry relative="1" as="geometry">
            <mxPoint x="340" y="451" as="sourcePoint" />
            <mxPoint x="640" y="450" as="targetPoint" />
          </mxGeometry>
        </mxCell>
        <mxCell id="9ruTHZRYSfqobqTMPus9-2" value="Click on Dietary &lt;br&gt;Restriction options &lt;br&gt;(Vegan, Vegetarian, &lt;br&gt;Lactose-Free and Gluten-Free)" style="edgeLabel;html=1;align=center;verticalAlign=middle;resizable=0;points=[];" parent="9ruTHZRYSfqobqTMPus9-1" vertex="1" connectable="0">
          <mxGeometry x="-0.1781" y="-2" relative="1" as="geometry">
            <mxPoint x="63" y="13" as="offset" />
          </mxGeometry>
        </mxCell>
        <mxCell id="SVRDVq-U8UQw9ykVcq_Q-47" style="edgeStyle=orthogonalEdgeStyle;rounded=0;orthogonalLoop=1;jettySize=auto;html=1;exitX=0;exitY=0.75;exitDx=0;exitDy=0;" parent="1" source="SVRDVq-U8UQw9ykVcq_Q-50" edge="1">
          <mxGeometry relative="1" as="geometry">
            <mxPoint x="210" y="809" as="targetPoint" />
            <Array as="points">
              <mxPoint x="210" y="750" />
              <mxPoint x="210" y="809" />
            </Array>
          </mxGeometry>
        </mxCell>
        <mxCell id="SVRDVq-U8UQw9ykVcq_Q-48" value="Click Delete Account" style="edgeLabel;html=1;align=center;verticalAlign=middle;resizable=0;points=[];" parent="SVRDVq-U8UQw9ykVcq_Q-47" vertex="1" connectable="0">
          <mxGeometry x="0.543" y="-2" relative="1" as="geometry">
            <mxPoint as="offset" />
          </mxGeometry>
        </mxCell>
        <mxCell id="SVRDVq-U8UQw9ykVcq_Q-49" style="edgeStyle=orthogonalEdgeStyle;rounded=0;orthogonalLoop=1;jettySize=auto;html=1;exitX=0.5;exitY=1;exitDx=0;exitDy=0;entryX=0;entryY=0.5;entryDx=0;entryDy=0;" parent="1" source="SVRDVq-U8UQw9ykVcq_Q-50" target="SVRDVq-U8UQw9ykVcq_Q-52" edge="1">
          <mxGeometry relative="1" as="geometry" />
        </mxCell>
        <mxCell id="SVRDVq-U8UQw9ykVcq_Q-59" style="edgeStyle=orthogonalEdgeStyle;rounded=0;orthogonalLoop=1;jettySize=auto;html=1;" parent="1" edge="1">
          <mxGeometry relative="1" as="geometry">
            <mxPoint x="300" y="700" as="sourcePoint" />
            <mxPoint x="300" y="470" as="targetPoint" />
            <Array as="points">
              <mxPoint x="300" y="705" />
              <mxPoint x="300" y="470" />
            </Array>
          </mxGeometry>
        </mxCell>
        <mxCell id="SVRDVq-U8UQw9ykVcq_Q-60" value="Click Sign Out" style="edgeLabel;html=1;align=center;verticalAlign=middle;resizable=0;points=[];" parent="SVRDVq-U8UQw9ykVcq_Q-59" vertex="1" connectable="0">
          <mxGeometry x="-0.4503" y="1" relative="1" as="geometry">
            <mxPoint as="offset" />
          </mxGeometry>
        </mxCell>
        <mxCell id="SVRDVq-U8UQw9ykVcq_Q-50" value="Account Page" style="rounded=1;whiteSpace=wrap;html=1;arcSize=24;fillColor=#ffffc0;strokeColor=#000000;shadow=0;comic=0;labelBackgroundColor=none;fontFamily=Verdana;fontSize=11;fontColor=#000000;align=center;rotation=0;" parent="1" vertex="1">
          <mxGeometry x="275.38" y="704.63" width="120" height="60" as="geometry" />
        </mxCell>
        <mxCell id="SVRDVq-U8UQw9ykVcq_Q-51" style="edgeStyle=orthogonalEdgeStyle;rounded=0;orthogonalLoop=1;jettySize=auto;html=1;exitX=0.5;exitY=0;exitDx=0;exitDy=0;fontSize=11;entryX=1;entryY=0.5;entryDx=0;entryDy=0;" parent="1" source="SVRDVq-U8UQw9ykVcq_Q-52" target="SVRDVq-U8UQw9ykVcq_Q-50" edge="1">
          <mxGeometry relative="1" as="geometry">
            <Array as="points">
              <mxPoint x="455.38" y="734.63" />
            </Array>
            <mxPoint x="315.38" y="615.63" as="targetPoint" />
          </mxGeometry>
        </mxCell>
        <mxCell id="SVRDVq-U8UQw9ykVcq_Q-52" value="Changes saved Confirmation Message" style="rounded=1;whiteSpace=wrap;html=1;arcSize=24;fillColor=#ffffc0;strokeColor=#000000;shadow=0;comic=0;labelBackgroundColor=none;fontFamily=Verdana;fontSize=11;fontColor=#000000;align=center;rotation=0;" parent="1" vertex="1">
          <mxGeometry x="395.38" y="814.13" width="120" height="60" as="geometry" />
        </mxCell>
        <mxCell id="SVRDVq-U8UQw9ykVcq_Q-62" style="edgeStyle=orthogonalEdgeStyle;rounded=0;orthogonalLoop=1;jettySize=auto;html=1;exitX=0.25;exitY=0;exitDx=0;exitDy=0;" parent="1" source="SVRDVq-U8UQw9ykVcq_Q-53" target="SVRDVq-U8UQw9ykVcq_Q-61" edge="1">
          <mxGeometry relative="1" as="geometry">
            <Array as="points">
              <mxPoint x="147" y="740" />
              <mxPoint x="147" y="740" />
            </Array>
          </mxGeometry>
        </mxCell>
        <mxCell id="SVRDVq-U8UQw9ykVcq_Q-63" value="Click Are you sure" style="edgeLabel;html=1;align=center;verticalAlign=middle;resizable=0;points=[];" parent="SVRDVq-U8UQw9ykVcq_Q-62" vertex="1" connectable="0">
          <mxGeometry x="0.2667" y="2" relative="1" as="geometry">
            <mxPoint as="offset" />
          </mxGeometry>
        </mxCell>
        <mxCell id="SVRDVq-U8UQw9ykVcq_Q-53" value="Delete Account Confirmation Message" style="rounded=1;whiteSpace=wrap;html=1;arcSize=24;fillColor=#ffffc0;strokeColor=#000000;shadow=0;comic=0;labelBackgroundColor=none;fontFamily=Verdana;fontSize=11;fontColor=#000000;align=center;rotation=0;" parent="1" vertex="1">
          <mxGeometry x="116.88" y="809.13" width="120" height="60" as="geometry" />
        </mxCell>
        <mxCell id="SVRDVq-U8UQw9ykVcq_Q-55" style="edgeStyle=orthogonalEdgeStyle;rounded=0;orthogonalLoop=1;jettySize=auto;html=1;exitX=1;exitY=0.25;exitDx=0;exitDy=0;" parent="1" source="SVRDVq-U8UQw9ykVcq_Q-50" edge="1">
          <mxGeometry relative="1" as="geometry">
            <mxPoint x="512" y="550" as="targetPoint" />
          </mxGeometry>
        </mxCell>
        <mxCell id="SVRDVq-U8UQw9ykVcq_Q-56" value="Click Close Icon" style="edgeLabel;html=1;align=center;verticalAlign=middle;resizable=0;points=[];" parent="SVRDVq-U8UQw9ykVcq_Q-55" vertex="1" connectable="0">
          <mxGeometry x="-0.0211" y="-2" relative="1" as="geometry">
            <mxPoint y="-5" as="offset" />
          </mxGeometry>
        </mxCell>
        <mxCell id="SVRDVq-U8UQw9ykVcq_Q-57" style="edgeStyle=orthogonalEdgeStyle;rounded=0;orthogonalLoop=1;jettySize=auto;html=1;" parent="1" source="cELMfS2GaExNaG8Us1sW-20" target="SVRDVq-U8UQw9ykVcq_Q-50" edge="1">
          <mxGeometry relative="1" as="geometry">
            <mxPoint x="450" y="570" as="sourcePoint" />
            <mxPoint x="400" y="710" as="targetPoint" />
            <Array as="points">
              <mxPoint x="450" y="710" />
            </Array>
          </mxGeometry>
        </mxCell>
        <mxCell id="SVRDVq-U8UQw9ykVcq_Q-58" value="Click Account Icon" style="edgeLabel;html=1;align=center;verticalAlign=middle;resizable=0;points=[];" parent="SVRDVq-U8UQw9ykVcq_Q-57" vertex="1" connectable="0">
          <mxGeometry x="-0.3667" y="-1" relative="1" as="geometry">
            <mxPoint as="offset" />
          </mxGeometry>
        </mxCell>
      </root>
    </mxGraphModel>
  </diagram>
</mxfile>
